# xmcd
#
# Track frame offsets: 
#        150
#        29303
#        61171
#        94703
#        130952
#        154558
#        205481
#        229902
#        268724
#        313802
#
# Disc length: 4866 seconds
#
# Revision: 0
# Processed by: cddbd v1.5.2PL0 Copyright (c) Steve Scherf et al.
# Submitted via: ExactAudioCopyFreeDBPlugin 1.0
#
DISCID=8713000a
DTITLE=Grateful Dead - Live From Saratoga June 1988 CD I
DYEAR=1988
DGENRE=
TTITLE0=Hell In A Bucket
TTITLE1=Bertha
TTITLE2=Walkin' Blues
TTITLE3=Candyman
TTITLE4=When I Paint my Masterpiece
TTITLE5=Row Jimmy
TTITLE6=Victim Of A Crime
TTITLE7=Foolish Heart
TTITLE8=Scarlet Begonias
TTITLE9=Fire On The Mountain
EXTD=
EXTT0=
EXTT1=
EXTT2=
EXTT3=
EXTT4=
EXTT5=
EXTT6=
EXTT7=
EXTT8=
EXTT9=
PLAYORDER=
